<?xml version="1.0" encoding="UTF-8"?>
<!DOCTYPE svg PUBLIC "-//W3C//DTD SVG 1.1//EN" "http://www.w3.org/Graphics/SVG/1.1/DTD/svg11.dtd">
<!-- Creator: CorelDRAW 2017 -->
<svg xmlns="http://www.w3.org/2000/svg" xml:space="preserve" width="16px" height="16px" version="1.1" shape-rendering="geometricPrecision" text-rendering="geometricPrecision" image-rendering="optimizeQuality" fill-rule="evenodd" clip-rule="evenodd"
viewBox="0 0 16 16"
 xmlns:xlink="http://www.w3.org/1999/xlink">
 <g id="レイヤ_x0020_1">
  <metadata id="CorelCorpID_0Corel-Layer"/>
  <g id="_1964874178256">
   <path fill="black" fill-rule="nonzero" d="M10.535 7.733c0.433,0 0.903,0.178 1.196,0.471 0.318,0.318 0.496,0.827 0.496,1.259 0,0.433 -0.178,0.942 -0.496,1.26 -0.318,0.319 -0.802,0.471 -1.196,0.471 -0.446,0 -0.955,-0.216 -1.222,-0.471 -0.331,-0.318 -0.496,-0.827 -0.496,-1.26 0,-0.534 0.216,-0.992 0.496,-1.259 0.305,-0.293 0.789,-0.471 1.222,-0.471zm0.802 -4.315l-2.355 3.029c-0.382,0.497 -0.713,0.878 -1.031,1.515 -0.267,0.522 -0.407,1.005 -0.407,1.629 0,0.827 0.293,1.451 0.738,1.921 0.649,0.675 1.451,0.828 2.189,0.828 0.56,0 1.476,-0.102 2.189,-0.802 0.573,-0.56 0.84,-1.387 0.84,-2.138 0,-0.777 -0.293,-1.502 -0.751,-1.985 -0.343,-0.357 -0.967,-0.79 -1.96,-0.79 -0.178,0 -0.343,0.013 -0.534,0.051l2.023 -2.558 -0.941 -0.7z"/>
   <polygon fill="black" fill-rule="nonzero" points="1.877,6.842 4.652,12.581 7.426,6.842 6.026,6.842 4.652,9.896 3.277,6.842 "/>
  </g>
 </g>
</svg>
